<?xml version="1.0" encoding="utf-8"?>
<!-- Generator: Adobe Illustrator 23.1.0, SVG Export Plug-In . SVG Version: 6.00 Build 0)  -->
<svg version="1.1" id="Layer_1" xmlns="http://www.w3.org/2000/svg" xmlns:xlink="http://www.w3.org/1999/xlink" x="0px" y="0px"
	 viewBox="0 0 150 34" style="enable-background:new 0 0 150 34;" xml:space="preserve">
<path d="M146,0H3.7C1.7,0,0,1.7,0,3.7l0,0v26.5C0,32.3,1.7,34,3.7,34H146c2.2,0,4-1.8,4-4V4C150,1.8,148.2,0,146,0z M149,30
	c0,1.7-1.3,3-3,3H3.7C2.2,33,1,31.8,1,30.3V3.7C1,2.2,2.2,1,3.7,1H146c1.7,0,3,1.3,3,3V30z"/>
<g>
	<path d="M20.7,12.2l-3.1,8.8h-3.1l-3.1-8.8h2.6l2,6.4l2-6.4H20.7z"/>
	<path d="M40.9,21.1l-2.8-3.9v3.9h-2.5v-8.8h2.5V16l2.7-3.8h2.8l-3.2,4.3l3.4,4.6H40.9z"/>
	<path d="M49,20.4c-0.7-0.5-1-1.2-1.1-2.1h2.6c0,0.3,0.1,0.5,0.3,0.7s0.4,0.2,0.6,0.2c0.2,0,0.4-0.1,0.6-0.2
		c0.1-0.1,0.2-0.3,0.2-0.5c0-0.3-0.1-0.5-0.4-0.6c-0.2-0.1-0.6-0.3-1.2-0.5c-0.6-0.2-1-0.4-1.4-0.6c-0.4-0.2-0.7-0.4-0.9-0.8
		S48,15.3,48,14.8c0-0.6,0.1-1.1,0.4-1.5c0.3-0.4,0.7-0.7,1.2-0.9c0.5-0.2,1.1-0.3,1.7-0.3c1,0,1.8,0.2,2.5,0.7c0.6,0.5,0.9,1.2,1,2
		h-2.7c0-0.3-0.1-0.5-0.2-0.6c-0.2-0.1-0.3-0.2-0.6-0.2c-0.2,0-0.3,0.1-0.4,0.2c-0.1,0.1-0.2,0.3-0.2,0.5c0,0.2,0.1,0.3,0.2,0.4
		c0.1,0.1,0.3,0.2,0.5,0.3c0.2,0.1,0.5,0.2,0.9,0.3c0.6,0.2,1,0.4,1.4,0.6c0.4,0.2,0.7,0.4,0.9,0.8c0.3,0.3,0.4,0.8,0.4,1.3
		c0,0.5-0.1,1-0.4,1.4c-0.3,0.4-0.6,0.7-1.1,1c-0.5,0.2-1.1,0.4-1.8,0.4C50.5,21.1,49.7,20.9,49,20.4z"/>
	<path d="M73.3,21.1h-2.5l-3.3-4.9v4.9h-2.5v-8.8h2.5l3.3,5v-5h2.5V21.1z"/>
	<polygon points="61.1,12.2 58.3,12.2 55.1,21.1 57.7,21.1 59.7,14.9 60.7,17.7 59.2,17.7 58.6,19.6 61.3,19.6 61.7,21.1 64.3,21.1 
			"/>
	<path d="M31.8,13.6c-0.3-0.4-0.6-0.8-1.1-1c-0.5-0.3-1.1-0.4-1.8-0.4h-3.7v8.8h2.5v-6.9h1c0.7,0,1,0.3,1,1c0,0.6-0.3,1-1,1H28v2
		h0.8c0.7,0,1.3-0.1,1.8-0.4c0.5-0.3,0.9-0.6,1.1-1c0.2-0.4,0.4-0.9,0.4-1.5C32.2,14.6,32,14.1,31.8,13.6z"/>
	<rect x="21.4" y="12.2" width="2.5" height="8.8"/>
	<rect x="44.5" y="12.2" width="2.5" height="8.8"/>
</g>
<g>
	<path d="M86.8,16.5c-0.3,0.4-0.6,0.8-1.1,1.1c-0.5,0.3-1.1,0.4-1.9,0.4h-1.2v3h-2.5v-9h3.8c0.7,0,1.3,0.1,1.8,0.4
		c0.5,0.3,0.9,0.6,1.1,1.1s0.4,1,0.4,1.6C87.2,15.6,87.1,16.1,86.8,16.5z M84.7,15c0-0.7-0.4-1-1.1-1h-1v2h1
		C84.3,16,84.7,15.7,84.7,15z"/>
	<path d="M93.9,19.6h-3.2L90.3,21h-2.6l3.3-9h2.9l3.3,9h-2.6L93.9,19.6z M93.3,17.6l-1-2.9l-1,2.9H93.3z"/>
	<path d="M102.5,21l-1.8-3.3h-0.3V21h-2.5v-9h4c0.7,0,1.3,0.1,1.8,0.4c0.5,0.3,0.9,0.6,1.1,1s0.4,0.9,0.4,1.5c0,0.6-0.2,1.2-0.5,1.6
		c-0.3,0.5-0.8,0.8-1.5,1l2,3.5H102.5z M100.4,16h1.2c0.3,0,0.6-0.1,0.8-0.2s0.3-0.4,0.3-0.7c0-0.3-0.1-0.5-0.3-0.7
		s-0.4-0.2-0.8-0.2h-1.2V16z"/>
	<path d="M113.2,12v2h-2.4v7h-2.5v-7h-2.4v-2H113.2z"/>
	<path d="M122.4,21h-2.5l-3.3-5v5h-2.5v-9h2.5l3.3,5.1V12h2.5V21z"/>
	<path d="M126.4,14v1.5h2.9v1.9h-2.9V19h3.3v2h-5.8v-9h5.8v2H126.4z"/>
	<path d="M135.5,21l-1.8-3.3h-0.3V21h-2.5v-9h4c0.7,0,1.3,0.1,1.8,0.4c0.5,0.3,0.9,0.6,1.1,1s0.4,0.9,0.4,1.5c0,0.6-0.2,1.2-0.5,1.6
		c-0.3,0.5-0.8,0.8-1.5,1l2,3.5H135.5z M133.4,16h1.2c0.3,0,0.6-0.1,0.8-0.2s0.3-0.4,0.3-0.7c0-0.3-0.1-0.5-0.3-0.7
		c-0.2-0.2-0.4-0.2-0.8-0.2h-1.2V16z"/>
</g>
</svg>
