<?xml version="1.0" encoding="utf-8"?>
<!-- Generator: Adobe Illustrator 23.1.0, SVG Export Plug-In . SVG Version: 6.00 Build 0)  -->
<svg version="1.1" id="Layer_1" xmlns="http://www.w3.org/2000/svg" xmlns:xlink="http://www.w3.org/1999/xlink" x="0px" y="0px"
	 viewBox="0 0 150 34" style="enable-background:new 0 0 150 34;" xml:space="preserve">
<style type="text/css">
	.st0{fill:#FFFFFF;}
</style>
<path class="st0" d="M146,0H3.7C1.7,0,0,1.7,0,3.7l0,0v26.5C0,32.3,1.7,34,3.7,34H146c2.2,0,4-1.8,4-4V4C150,1.8,148.2,0,146,0z
	 M149,30c0,1.7-1.3,3-3,3H3.7C2.2,33,1,31.8,1,30.3V3.7C1,2.2,2.2,1,3.7,1H146c1.7,0,3,1.3,3,3V30z"/>
<g>
	<path class="st0" d="M18.5,11.3L15,21.2h-3.5l-3.5-9.9H11l2.2,7.2l2.2-7.2C15.5,11.3,18.5,11.3,18.5,11.3z"/>
	<path class="st0" d="M41.1,21.3L38,16.9v4.4h-2.8v-9.9H38v4.1l3-4.3h3.1l-3.6,4.8l3.8,5.2H41.1z"/>
	<path class="st0" d="M50.2,20.5c-0.8-0.6-1.1-1.3-1.2-2.4h2.9c0,0.3,0.1,0.6,0.3,0.8s0.4,0.2,0.7,0.2c0.2,0,0.4-0.1,0.7-0.2
		c0.1-0.1,0.2-0.3,0.2-0.6c0-0.3-0.1-0.6-0.4-0.7c-0.2-0.1-0.7-0.3-1.3-0.6c-0.7-0.2-1.1-0.4-1.6-0.7s-0.8-0.4-1-0.9
		c-0.2-0.4-0.3-0.8-0.3-1.3c0-0.7,0.1-1.2,0.4-1.7c0.3-0.4,0.8-0.8,1.3-1c0.6-0.2,1.2-0.3,1.9-0.3c1.1,0,2,0.2,2.8,0.8
		c0.7,0.6,1,1.3,1.1,2.2h-3c0-0.3-0.1-0.6-0.2-0.7c-0.2-0.1-0.3-0.2-0.7-0.2c-0.2,0-0.3,0.1-0.4,0.2c-0.1,0.1-0.2,0.3-0.2,0.6
		s0.1,0.3,0.2,0.4c0.1,0.1,0.3,0.2,0.6,0.3s0.6,0.2,1,0.3c0.7,0.2,1.1,0.4,1.6,0.7c0.4,0.2,0.8,0.4,1,0.9c0.3,0.3,0.4,0.9,0.4,1.5
		s-0.1,1.1-0.4,1.6c-0.3,0.4-0.7,0.8-1.2,1.1c-0.6,0.2-1.2,0.4-2,0.4C51.9,21.3,51,21.1,50.2,20.5z"/>
	<path class="st0" d="M77.4,21.3h-2.8l-3.7-5.5v5.5h-2.8v-9.9h2.8l3.7,5.6v-5.6h2.8V21.3z"/>
	<polygon class="st0" points="63.7,11.3 60.6,11.3 57,21.3 59.9,21.3 62.2,14.3 63.3,17.5 61.6,17.5 60.9,19.6 64,19.6 64.4,21.3 
		67.3,21.3 	"/>
	<path class="st0" d="M30.9,12.9c-0.3-0.4-0.7-0.9-1.2-1.1c-0.6-0.3-1.2-0.4-2-0.4h-4.1v9.9h2.8v-7.7h1.1c0.8,0,1.1,0.3,1.1,1.1
		c0,0.7-0.3,1.1-1.1,1.1h-0.8v2.2h0.9c0.8,0,1.5-0.1,2-0.4s1-0.7,1.2-1.1s0.4-1,0.4-1.7C31.4,14,31.2,13.4,30.9,12.9z"/>
	<rect x="19.3" y="11.3" class="st0" width="2.8" height="9.9"/>
	<rect x="45.2" y="11.3" class="st0" width="2.8" height="9.9"/>
</g>
<g>
	<path class="st0" d="M93.3,16.1c-0.3,0.5-0.7,0.9-1.2,1.2s-1.2,0.4-2,0.4h-1.5v3.6h-2.4v-10h3.9c0.8,0,1.5,0.1,2,0.4
		c0.5,0.3,1,0.7,1.2,1.1c0.3,0.5,0.4,1,0.4,1.7C93.7,15.1,93.6,15.6,93.3,16.1z M90.9,15.4c0.2-0.2,0.3-0.5,0.3-0.9
		c0-0.4-0.1-0.7-0.3-0.9c-0.2-0.2-0.6-0.3-1-0.3h-1.3v2.5h1.3C90.4,15.8,90.7,15.7,90.9,15.4z"/>
	<path class="st0" d="M95.3,15.2c0.3-0.6,0.7-1.1,1.3-1.4c0.5-0.3,1.1-0.5,1.8-0.5c0.6,0,1,0.1,1.5,0.3c0.4,0.2,0.7,0.5,1,0.9v-1.1
		h2.4v7.9h-2.4v-1.1c-0.2,0.4-0.6,0.7-1,0.9s-0.9,0.3-1.5,0.3c-0.6,0-1.2-0.2-1.8-0.5c-0.5-0.3-1-0.8-1.3-1.4
		c-0.3-0.6-0.5-1.3-0.5-2.2C94.9,16.5,95,15.8,95.3,15.2z M100.3,15.9c-0.3-0.4-0.7-0.5-1.2-0.5s-0.9,0.2-1.2,0.5
		c-0.3,0.3-0.5,0.8-0.5,1.4s0.2,1.1,0.5,1.4s0.7,0.5,1.2,0.5s0.9-0.2,1.2-0.5s0.5-0.8,0.5-1.4C100.8,16.7,100.7,16.2,100.3,15.9z"/>
	<path class="st0" d="M108.9,13.6c0.4-0.3,0.9-0.4,1.4-0.4v2.6h-0.7c-0.6,0-1.1,0.1-1.4,0.4c-0.3,0.3-0.5,0.7-0.5,1.4v3.7h-2.4v-7.9
		h2.4v1.3C108.1,14.2,108.4,13.9,108.9,13.6z"/>
	<path class="st0" d="M116.2,19.2v2.1H115c-0.9,0-1.6-0.2-2.1-0.6c-0.5-0.4-0.7-1.1-0.7-2.1v-3.2h-1v-2h1v-1.9h2.4v1.9h1.6v2h-1.6
		v3.2c0,0.2,0.1,0.4,0.2,0.5c0.1,0.1,0.3,0.2,0.6,0.2H116.2z"/>
	<path class="st0" d="M125,14.2c0.6,0.6,0.8,1.4,0.8,2.5v4.6h-2.4V17c0-0.5-0.1-0.9-0.4-1.2c-0.3-0.3-0.6-0.4-1.1-0.4
		c-0.5,0-0.8,0.1-1.1,0.4c-0.3,0.3-0.4,0.7-0.4,1.2v4.3h-2.4v-7.9h2.4v1.1c0.2-0.4,0.6-0.6,1-0.8c0.4-0.2,0.9-0.3,1.4-0.3
		C123.7,13.3,124.4,13.6,125,14.2z"/>
	<path class="st0" d="M135.3,17.9h-5.5c0,0.5,0.2,0.9,0.5,1.1c0.3,0.3,0.6,0.4,1,0.4c0.6,0,1-0.3,1.3-0.8h2.6
		c-0.1,0.5-0.4,1-0.7,1.4s-0.8,0.7-1.3,1c-0.5,0.2-1.1,0.4-1.7,0.4c-0.8,0-1.5-0.2-2.1-0.5s-1.1-0.8-1.4-1.4
		c-0.3-0.6-0.5-1.3-0.5-2.2s0.2-1.5,0.5-2.2c0.3-0.6,0.8-1.1,1.4-1.4c0.6-0.3,1.3-0.5,2.1-0.5c0.8,0,1.5,0.2,2,0.5
		c0.6,0.3,1.1,0.8,1.4,1.4c0.3,0.6,0.5,1.3,0.5,2.1C135.4,17.4,135.3,17.7,135.3,17.9z M132.9,16.6c0-0.4-0.1-0.7-0.4-1
		c-0.3-0.2-0.6-0.4-1.1-0.4c-0.4,0-0.8,0.1-1,0.4c-0.3,0.2-0.5,0.6-0.5,1H132.9z"/>
	<path class="st0" d="M140.5,13.6c0.4-0.3,0.9-0.4,1.4-0.4v2.6h-0.7c-0.6,0-1.1,0.1-1.4,0.4c-0.3,0.3-0.5,0.7-0.5,1.4v3.7H137v-7.9
		h2.4v1.3C139.7,14.2,140.1,13.9,140.5,13.6z"/>
</g>
</svg>
