<?xml version="1.0" encoding="utf-8"?>
<!-- Generator: Adobe Illustrator 23.1.0, SVG Export Plug-In . SVG Version: 6.00 Build 0)  -->
<svg version="1.1" id="Layer_1" xmlns="http://www.w3.org/2000/svg" xmlns:xlink="http://www.w3.org/1999/xlink" x="0px" y="0px"
	 viewBox="0 0 150 34" style="enable-background:new 0 0 150 34;" xml:space="preserve">
<path d="M146,0H3.7C1.7,0,0,1.7,0,3.7l0,0v26.5C0,32.3,1.7,34,3.7,34H146c2.2,0,4-1.8,4-4V4C150,1.8,148.2,0,146,0z M149,30
	c0,1.7-1.3,3-3,3H3.7C2.2,33,1,31.8,1,30.3V3.7C1,2.2,2.2,1,3.7,1H146c1.7,0,3,1.3,3,3V30z"/>
<g>
	<path d="M88.3,12.2l-3.1,8.8h-3.1l-3.1-8.8h2.6l2,6.4l2-6.4H88.3z"/>
	<path d="M108.6,21.1l-2.8-3.9v3.9h-2.5v-8.8h2.5V16l2.7-3.8h2.8l-3.2,4.3l3.4,4.6H108.6z"/>
	<path d="M116.6,20.4c-0.7-0.5-1-1.2-1.1-2.1h2.6c0,0.3,0.1,0.5,0.3,0.7c0.2,0.1,0.4,0.2,0.6,0.2c0.2,0,0.4-0.1,0.6-0.2
		c0.1-0.1,0.2-0.3,0.2-0.5c0-0.3-0.1-0.5-0.4-0.6c-0.2-0.1-0.6-0.3-1.2-0.5c-0.6-0.2-1-0.4-1.4-0.6c-0.4-0.2-0.7-0.4-0.9-0.8
		s-0.4-0.8-0.4-1.4c0-0.6,0.1-1.1,0.4-1.5c0.3-0.4,0.7-0.7,1.2-0.9c0.5-0.2,1.1-0.3,1.7-0.3c1,0,1.8,0.2,2.5,0.7
		c0.6,0.5,0.9,1.2,1,2h-2.7c0-0.3-0.1-0.5-0.2-0.6c-0.2-0.1-0.3-0.2-0.6-0.2c-0.2,0-0.3,0.1-0.4,0.2c-0.1,0.1-0.2,0.3-0.2,0.5
		c0,0.2,0.1,0.3,0.2,0.4c0.1,0.1,0.3,0.2,0.5,0.3c0.2,0.1,0.5,0.2,0.9,0.3c0.6,0.2,1,0.4,1.4,0.6c0.4,0.2,0.7,0.4,0.9,0.8
		c0.3,0.3,0.4,0.8,0.4,1.3c0,0.5-0.1,1-0.4,1.4c-0.3,0.4-0.6,0.7-1.1,1c-0.5,0.2-1.1,0.4-1.8,0.4C118.1,21.1,117.3,20.9,116.6,20.4z
		"/>
	<path d="M141,21.1h-2.5l-3.3-4.9v4.9h-2.5v-8.8h2.5l3.3,5v-5h2.5V21.1z"/>
	<polygon points="128.8,12.2 125.9,12.2 122.7,21.1 125.3,21.1 127.3,14.9 128.3,17.7 126.9,17.7 126.2,19.6 128.9,19.6 129.4,21.1 
		132,21.1 	"/>
	<path d="M99.4,13.6c-0.3-0.4-0.6-0.8-1.1-1c-0.5-0.3-1.1-0.4-1.8-0.4h-3.7v8.8h2.5v-6.9h1c0.7,0,1,0.3,1,1c0,0.6-0.3,1-1,1h-0.6v2
		h0.8c0.7,0,1.3-0.1,1.8-0.4s0.9-0.6,1.1-1c0.2-0.4,0.4-0.9,0.4-1.5C99.8,14.6,99.7,14.1,99.4,13.6z"/>
	<rect x="89" y="12.2" width="2.5" height="8.8"/>
	<rect x="112.1" y="12.2" width="2.5" height="8.8"/>
</g>
<g>
	<path d="M14,17.2c-0.2,0.3-0.5,0.6-0.8,0.8c-0.4,0.2-0.9,0.3-1.4,0.3h-1.2V21H9.1v-7h2.6c0.5,0,1,0.1,1.4,0.3
		c0.4,0.2,0.7,0.4,0.9,0.8c0.2,0.3,0.3,0.7,0.3,1.1C14.3,16.5,14.2,16.9,14,17.2z M12.5,16.9c0.2-0.2,0.3-0.4,0.3-0.8
		c0-0.7-0.4-1-1.1-1h-1.1v2h1.1C12,17.2,12.3,17.1,12.5,16.9z"/>
	<path d="M16.4,20.7c-0.4-0.2-0.8-0.6-1-1S15,18.8,15,18.2s0.1-1.1,0.4-1.5s0.6-0.8,1-1c0.4-0.2,0.9-0.4,1.5-0.4
		c0.5,0,1,0.1,1.5,0.4c0.4,0.2,0.8,0.6,1,1s0.4,0.9,0.4,1.5s-0.1,1.1-0.4,1.5s-0.6,0.8-1,1s-0.9,0.4-1.5,0.4
		C17.3,21.1,16.8,21,16.4,20.7z M18.5,19.7c0.2-0.1,0.4-0.3,0.5-0.6c0.1-0.2,0.2-0.6,0.2-0.9c0-0.5-0.1-0.9-0.4-1.2
		c-0.3-0.3-0.6-0.4-1-0.4c-0.4,0-0.7,0.1-1,0.4c-0.3,0.3-0.4,0.7-0.4,1.2s0.1,0.9,0.4,1.2s0.6,0.4,1,0.4
		C18.1,19.9,18.3,19.8,18.5,19.7z"/>
	<path d="M29.6,15.4L28,21h-1.5l-1-3.9l-1,3.9h-1.5l-1.6-5.6h1.4l1,4.2l1.1-4.2h1.5l1,4.2l1-4.2H29.6z"/>
	<path d="M30.4,16.7c0.2-0.4,0.5-0.8,0.9-1s0.8-0.4,1.3-0.4c0.4,0,0.7,0.1,1,0.2c0.3,0.2,0.6,0.4,0.8,0.6v-2.6h1.4V21h-1.4v-0.8
		c-0.2,0.3-0.4,0.5-0.7,0.7c-0.3,0.2-0.7,0.3-1.1,0.3c-0.5,0-0.9-0.1-1.3-0.4c-0.4-0.2-0.7-0.6-0.9-1c-0.2-0.4-0.3-0.9-0.3-1.5
		C30.1,17.6,30.2,17.1,30.4,16.7z M34.3,17.3c-0.1-0.2-0.3-0.4-0.5-0.6c-0.2-0.1-0.5-0.2-0.7-0.2s-0.5,0.1-0.7,0.2
		c-0.2,0.1-0.4,0.3-0.5,0.6c-0.1,0.2-0.2,0.5-0.2,0.9c0,0.3,0.1,0.6,0.2,0.9c0.1,0.3,0.3,0.4,0.5,0.6c0.2,0.1,0.5,0.2,0.7,0.2
		c0.3,0,0.5-0.1,0.7-0.2c0.2-0.1,0.4-0.3,0.5-0.6c0.1-0.2,0.2-0.5,0.2-0.9S34.4,17.6,34.3,17.3z"/>
	<path d="M42.5,18.6h-4.1c0,0.4,0.2,0.7,0.4,0.9c0.2,0.2,0.6,0.3,0.9,0.3c0.5,0,0.9-0.2,1.1-0.7h1.5c-0.2,0.5-0.5,1-0.9,1.3
		c-0.5,0.3-1,0.5-1.7,0.5c-0.5,0-1-0.1-1.4-0.4c-0.4-0.2-0.8-0.6-1-1S37,18.8,37,18.2c0-0.6,0.1-1.1,0.4-1.5c0.2-0.4,0.6-0.8,1-1
		s0.9-0.4,1.5-0.4c0.5,0,1,0.1,1.4,0.3c0.4,0.2,0.7,0.6,1,1c0.2,0.4,0.3,0.9,0.3,1.4C42.6,18.3,42.6,18.5,42.5,18.6z M41.1,17.7
		c0-0.4-0.1-0.7-0.4-0.9c-0.3-0.2-0.6-0.3-0.9-0.3c-0.3,0-0.6,0.1-0.9,0.3c-0.2,0.2-0.4,0.5-0.4,0.9H41.1z"/>
	<path d="M45.8,15.6c0.3-0.2,0.6-0.3,1-0.3v1.5h-0.4c-0.4,0-0.8,0.1-1,0.3c-0.2,0.2-0.3,0.6-0.3,1.1V21h-1.4v-5.6h1.4v0.9
		C45.3,16,45.5,15.8,45.8,15.6z"/>
	<path d="M53,18.6h-4.1c0,0.4,0.2,0.7,0.4,0.9c0.2,0.2,0.6,0.3,0.9,0.3c0.5,0,0.9-0.2,1.1-0.7h1.5c-0.2,0.5-0.5,1-0.9,1.3
		c-0.5,0.3-1,0.5-1.7,0.5c-0.5,0-1-0.1-1.4-0.4c-0.4-0.2-0.8-0.6-1-1s-0.4-0.9-0.4-1.5c0-0.6,0.1-1.1,0.4-1.5c0.2-0.4,0.6-0.8,1-1
		s0.9-0.4,1.5-0.4c0.5,0,1,0.1,1.4,0.3c0.4,0.2,0.7,0.6,1,1c0.2,0.4,0.3,0.9,0.3,1.4C53.1,18.3,53,18.5,53,18.6z M51.6,17.7
		c0-0.4-0.1-0.7-0.4-0.9c-0.3-0.2-0.6-0.3-0.9-0.3c-0.3,0-0.6,0.1-0.9,0.3C49.2,17,49,17.3,49,17.7H51.6z"/>
	<path d="M54.2,16.7c0.2-0.4,0.5-0.8,0.9-1s0.8-0.4,1.3-0.4c0.4,0,0.7,0.1,1,0.2c0.3,0.2,0.6,0.4,0.8,0.6v-2.6h1.4V21h-1.4v-0.8
		c-0.2,0.3-0.4,0.5-0.7,0.7c-0.3,0.2-0.7,0.3-1.1,0.3c-0.5,0-0.9-0.1-1.3-0.4c-0.4-0.2-0.7-0.6-0.9-1c-0.2-0.4-0.3-0.9-0.3-1.5
		C53.8,17.6,53.9,17.1,54.2,16.7z M58,17.3c-0.1-0.2-0.3-0.4-0.5-0.6c-0.2-0.1-0.5-0.2-0.7-0.2s-0.5,0.1-0.7,0.2
		c-0.2,0.1-0.4,0.3-0.5,0.6c-0.1,0.2-0.2,0.5-0.2,0.9c0,0.3,0.1,0.6,0.2,0.9c0.1,0.3,0.3,0.4,0.5,0.6c0.2,0.1,0.5,0.2,0.7,0.2
		c0.3,0,0.5-0.1,0.7-0.2c0.2-0.1,0.4-0.3,0.5-0.6c0.1-0.2,0.2-0.5,0.2-0.9S58.1,17.6,58,17.3z"/>
	<path d="M65.8,15.6c0.3-0.2,0.7-0.3,1.1-0.3c0.5,0,0.9,0.1,1.3,0.4c0.4,0.2,0.7,0.6,0.9,1c0.2,0.4,0.3,0.9,0.3,1.5
		c0,0.6-0.1,1.1-0.3,1.5c-0.2,0.4-0.5,0.8-0.9,1c-0.4,0.2-0.8,0.4-1.3,0.4c-0.4,0-0.8-0.1-1.1-0.2c-0.3-0.2-0.6-0.4-0.8-0.6V21h-1.4
		v-7.4H65v2.7C65.2,16,65.4,15.7,65.8,15.6z M67.8,17.3c-0.1-0.2-0.3-0.4-0.5-0.6c-0.2-0.1-0.5-0.2-0.7-0.2c-0.3,0-0.5,0.1-0.7,0.2
		c-0.2,0.1-0.4,0.3-0.5,0.6c-0.1,0.2-0.2,0.5-0.2,0.9s0.1,0.6,0.2,0.9c0.1,0.2,0.3,0.4,0.5,0.6c0.2,0.1,0.5,0.2,0.7,0.2
		c0.3,0,0.5-0.1,0.7-0.2c0.2-0.1,0.4-0.3,0.5-0.6c0.1-0.2,0.2-0.5,0.2-0.9C68,17.8,67.9,17.6,67.8,17.3z"/>
	<path d="M75.9,15.4l-3.5,8.2h-1.5l1.2-2.8l-2.2-5.4h1.6l1.4,3.9l1.5-3.9H75.9z"/>
</g>
</svg>
